<mxfile host="Electron" agent="Mozilla/5.0 (Windows NT 10.0; Win64; x64) AppleWebKit/537.36 (KHTML, like Gecko) draw.io/24.7.8 Chrome/128.0.6613.36 Electron/32.0.1 Safari/537.36" version="24.7.8">
  <diagram name="Page-1" id="-TtaSbwbaJkGfymZDGEP">
    <mxGraphModel dx="869" dy="507" grid="1" gridSize="10" guides="1" tooltips="1" connect="1" arrows="1" fold="1" page="1" pageScale="1" pageWidth="850" pageHeight="1100" math="0" shadow="0">
      <root>
        <mxCell id="0" />
        <mxCell id="1" parent="0" />
        <mxCell id="BTED68s6D7uwYp8Uasaa-1" value="FLOWCHART MENGHITUNG KELILING BANGUN DATAR PERSEGI PANJANG" style="rounded=0;whiteSpace=wrap;html=1;" parent="1" vertex="1">
          <mxGeometry x="320" y="180" width="250" height="60" as="geometry" />
        </mxCell>
        <mxCell id="vb9tvm8x45TFN2qv1veS-1" value="MULAI" style="ellipse;whiteSpace=wrap;html=1;" vertex="1" parent="1">
          <mxGeometry x="385" y="310" width="120" height="80" as="geometry" />
        </mxCell>
        <mxCell id="vb9tvm8x45TFN2qv1veS-3" value="DEKLARASI VARIABLE&lt;div&gt;&lt;br&gt;&lt;/div&gt;&lt;div&gt;&lt;div style=&quot;text-align: left;&quot;&gt;&amp;nbsp; &amp;nbsp;&lt;i&gt; float panjang = 18;&lt;/i&gt;&lt;/div&gt;&lt;div style=&quot;text-align: left;&quot;&gt;&lt;i&gt;&lt;br&gt;&lt;/i&gt;&lt;/div&gt;&lt;div style=&quot;text-align: left;&quot;&gt;&lt;i&gt;&amp;nbsp; &amp;nbsp; float lebar = 7;&lt;/i&gt;&lt;/div&gt;&lt;div style=&quot;text-align: left;&quot;&gt;&lt;i&gt;&lt;br&gt;&lt;/i&gt;&lt;/div&gt;&lt;div style=&quot;text-align: left;&quot;&gt;&lt;i&gt;&amp;nbsp; &amp;nbsp; float keliling;&lt;/i&gt;&lt;/div&gt;&lt;/div&gt;" style="rounded=0;whiteSpace=wrap;html=1;verticalAlign=middle;" vertex="1" parent="1">
          <mxGeometry x="335" y="441" width="235" height="170" as="geometry" />
        </mxCell>
        <mxCell id="vb9tvm8x45TFN2qv1veS-9" style="edgeStyle=orthogonalEdgeStyle;rounded=0;orthogonalLoop=1;jettySize=auto;html=1;entryX=0.5;entryY=0;entryDx=0;entryDy=0;" edge="1" parent="1" source="vb9tvm8x45TFN2qv1veS-4" target="vb9tvm8x45TFN2qv1veS-5">
          <mxGeometry relative="1" as="geometry" />
        </mxCell>
        <mxCell id="vb9tvm8x45TFN2qv1veS-4" value="HITUNG KELILING PERSEGI&amp;nbsp; PANJANG&lt;div&gt;&lt;br&gt;&lt;/div&gt;&lt;div&gt;&lt;i&gt;keliling = 2 * (panjang + lebar);&lt;/i&gt;&lt;/div&gt;" style="rounded=0;whiteSpace=wrap;html=1;verticalAlign=middle;" vertex="1" parent="1">
          <mxGeometry x="325" y="680" width="255" height="100" as="geometry" />
        </mxCell>
        <mxCell id="vb9tvm8x45TFN2qv1veS-10" style="edgeStyle=orthogonalEdgeStyle;rounded=0;orthogonalLoop=1;jettySize=auto;html=1;" edge="1" parent="1" source="vb9tvm8x45TFN2qv1veS-5">
          <mxGeometry relative="1" as="geometry">
            <mxPoint x="452.5" y="1010" as="targetPoint" />
          </mxGeometry>
        </mxCell>
        <mxCell id="vb9tvm8x45TFN2qv1veS-5" value="&lt;div&gt;MENAMPILKAN OUTPUT HASIL HITUNG KELILING&lt;/div&gt;&lt;div&gt;&lt;br&gt;&lt;/div&gt;&lt;div&gt;&lt;div style=&quot;text-align: justify;&quot;&gt;&amp;nbsp;cout &amp;lt;&amp;lt; &quot;Panjang: &quot; &amp;lt;&amp;lt; panjang &amp;lt;&amp;lt; endl;&lt;/div&gt;&lt;div style=&quot;text-align: justify;&quot;&gt;&amp;nbsp;cout &amp;lt;&amp;lt; &quot;Lebar: &quot; &amp;lt;&amp;lt; lebar &amp;lt;&amp;lt; endl;&lt;/div&gt;&lt;div style=&quot;text-align: justify;&quot;&gt;&amp;nbsp;cout &amp;lt;&amp;lt; &quot;Keliling persegi panjang adalah: &quot; &amp;lt;&amp;lt; keliling &amp;lt;&amp;lt; endl;&lt;/div&gt;&lt;/div&gt;" style="rounded=0;whiteSpace=wrap;html=1;verticalAlign=middle;" vertex="1" parent="1">
          <mxGeometry x="262.5" y="850" width="380" height="100" as="geometry" />
        </mxCell>
        <mxCell id="vb9tvm8x45TFN2qv1veS-6" value="SELESAI" style="ellipse;whiteSpace=wrap;html=1;" vertex="1" parent="1">
          <mxGeometry x="392.5" y="1010" width="120" height="80" as="geometry" />
        </mxCell>
        <mxCell id="vb9tvm8x45TFN2qv1veS-7" style="edgeStyle=orthogonalEdgeStyle;rounded=0;orthogonalLoop=1;jettySize=auto;html=1;entryX=0.465;entryY=0.014;entryDx=0;entryDy=0;entryPerimeter=0;" edge="1" parent="1" source="vb9tvm8x45TFN2qv1veS-1" target="vb9tvm8x45TFN2qv1veS-3">
          <mxGeometry relative="1" as="geometry" />
        </mxCell>
        <mxCell id="vb9tvm8x45TFN2qv1veS-8" style="edgeStyle=orthogonalEdgeStyle;rounded=0;orthogonalLoop=1;jettySize=auto;html=1;entryX=0.501;entryY=-0.034;entryDx=0;entryDy=0;entryPerimeter=0;" edge="1" parent="1" source="vb9tvm8x45TFN2qv1veS-3" target="vb9tvm8x45TFN2qv1veS-4">
          <mxGeometry relative="1" as="geometry" />
        </mxCell>
      </root>
    </mxGraphModel>
  </diagram>
</mxfile>
